<?xml version="1.0" encoding="utf-8"?>
<!-- Generator: Adobe Illustrator 23.0.4, SVG Export Plug-In . SVG Version: 6.00 Build 0)  -->
<svg version="1.1" id="Layer_1" xmlns="http://www.w3.org/2000/svg" xmlns:xlink="http://www.w3.org/1999/xlink" x="0px" y="0px"
	 viewBox="0 0 1920 1080" style="enable-background:new 0 0 1920 1080;" xml:space="preserve">
<style type="text/css">
	.st0{clip-path:url(#SVGID_2_);}
	.st1{display:none;opacity:0.3;fill:#ADB7C6;}
	.st2{opacity:0.2;clip-path:url(#XMLID_3_);fill:#383852;}
	.st3{display:none;fill:url(#SVGID_3_);}
	.st4{display:none;fill:url(#SVGID_4_);}
	.st5{display:none;fill:url(#SVGID_5_);}
	.st6{display:none;fill:url(#SVGID_6_);}
	.st7{display:none;fill:url(#SVGID_7_);}
	.st8{display:none;fill:url(#SVGID_8_);}
	.st9{display:none;}
	.st10{display:inline;}
	.st11{display:inline;clip-path:url(#XMLID_5_);fill:#AEDCE7;}
	.st12{display:inline;opacity:0.2;clip-path:url(#XMLID_5_);fill:#764E7A;}
	.st13{display:inline;opacity:0.28;fill:url(#XMLID_6_);}
	.st14{display:inline;opacity:0.5;fill:url(#XMLID_7_);}
	.st15{opacity:0.2;clip-path:url(#XMLID_9_);fill:#393289;}
	.st16{opacity:0.2;clip-path:url(#XMLID_9_);fill:#764E7A;}
	.st17{display:inline;opacity:0.2;clip-path:url(#XMLID_11_);fill:#464E7A;}
	.st18{display:inline;opacity:0.2;clip-path:url(#XMLID_14_);fill:#464E7A;}
	.st19{display:inline;clip-path:url(#XMLID_16_);fill:#AEDCE7;}
	.st20{display:inline;opacity:0.3;clip-path:url(#XMLID_16_);fill:#ED674F;}
</style>
<g>
	<defs>
		<rect id="SVGID_1_" width="1920" height="1080"/>
	</defs>
	<clipPath id="SVGID_2_">
		<use xlink:href="#SVGID_1_"  style="overflow:visible;"/>
	</clipPath>
	<g class="st0">
		
			<rect x="-445.18" y="426.67" transform="matrix(-1.836970e-16 1 -1 -1.836970e-16 654.3996 477.972)" class="st1" width="1066.79" height="279.03"/>
		<g>
			<defs>
				<polygon id="XMLID_13_" points="-13.36,1132.1 -13.36,0 1920,0 1920,1132.1 				"/>
			</defs>
			
				<linearGradient id="XMLID_2_" gradientUnits="userSpaceOnUse" x1="1706.3816" y1="-121.9672" x2="-174.946" y2="1708.317" gradientTransform="matrix(6.123234e-17 1 -1 6.123234e-17 1579.1892 -371.6362)">
				<stop  offset="0" style="stop-color:#241E4A"/>
				<stop  offset="1" style="stop-color:#1FA6C0"/>
			</linearGradient>
			<use xlink:href="#XMLID_13_"  style="overflow:visible;fill:url(#XMLID_2_);"/>
			<clipPath id="XMLID_3_">
				<use xlink:href="#XMLID_13_"  style="overflow:visible;"/>
			</clipPath>
			<path class="st2" d="M1213.36-741.16c199.82,161.58,303.24,434.32,260.8,687.77c-12,71.68-37.75,145.91-95.18,190.44
				c-95.21,73.83-230.54,38.38-350.2,24.34c-250.07-29.33-511.44,58.79-692.7,233.55S57.21,827.68,77.39,1078.66
				c17.08,212.39,120.66,421.15,294.18,544.81c74.26,52.92,165.96,90.54,255.69,74.3c154.3-27.93,240.55-203.81,238.21-360.6
				c-2.33-156.79-66.65-305.22-99.07-458.64c-32.42-153.42-24.92-333.06,88.83-441c122.05-115.82,314.65-104.21,479.7-71.49
				s342.72,77.82,495.67,7.7c89.35-40.97,158.29-117.48,209.1-201.63c51.69-85.6,98.11-190.25,194.08-218.33
				c65.48-19.15,138.37,6.08,188.74,52.08c50.38,46,80.98,109.99,100.84,175.26c47.5,156.08,28.23,348.98-100.96,448.63
				c-133.46,102.93-325.13,68.64-483.88,12.04c-158.75-56.61-324.46-131.93-488.96-95.25c-130.88,29.18-237.45,126.65-312.2,237.97
				c-86.4,128.68-138.73,283.29-129.75,438.03c8.98,154.74,83.63,308.1,210.69,396.86c57.9,40.45,144.02,64,194.31,14.41
				c29.59-29.17,36.03-74.82,32.15-116.19c-16.37-174.68-179.41-307.19-202.63-481.09c-14.89-111.5,32.55-225.68,110.03-307.23
				c92.16-97,255.69-148.12,358.89-62.96c16.74,13.82,31.4,31.25,37.34,52.13c15.96,56.14-36.09,109.74-90.16,131.7
				c-54.07,21.97-115.56,27.67-163.19,61.39c-57.82,40.94-83.09,116.9-78.8,187.62c6.08,100.31,65.36,193.47,147.42,251.48
				c82.06,58.01,184.67,82.83,285.14,81.15c140.8-2.35,280.2-55.99,386.25-148.63c94.31-82.39,160.52-191.91,218.08-303.12
				c53.62-103.59,101.79-212.73,113.38-328.8c17.31-173.29-48.22-343.69-123.42-500.76c-90.29-188.59-201.4-375.29-371.28-497.2
				c-157.38-112.94-351.25-160.47-540.67-200.98"/>
		</g>
		
			<linearGradient id="SVGID_3_" gradientUnits="userSpaceOnUse" x1="-452.2786" y1="-1871.4506" x2="-567.1296" y2="-1692.4968" gradientTransform="matrix(-0.7071 0.7071 -0.7071 -0.7071 144.6317 -752.2659)">
			<stop  offset="0" style="stop-color:#FFFFFF"/>
			<stop  offset="0.2125" style="stop-color:#95D3E1"/>
			<stop  offset="1" style="stop-color:#FFEE5B"/>
		</linearGradient>
		<path class="st3" d="M1852.57,99.38c0,0-113.59,107.89-143.63,137.94c-26.18,26.18-21.21,35.52,7.37,6.95
			C1754.38,206.19,1852.57,99.38,1852.57,99.38z"/>
		
			<linearGradient id="SVGID_4_" gradientUnits="userSpaceOnUse" x1="-341.0851" y1="-1697.5664" x2="-455.9359" y2="-1518.6128" gradientTransform="matrix(-0.7071 0.7071 -0.7071 -0.7071 144.6317 -752.2659)">
			<stop  offset="0" style="stop-color:#FFFFFF"/>
			<stop  offset="0.2125" style="stop-color:#95D3E1"/>
			<stop  offset="1" style="stop-color:#FFEE5B"/>
		</linearGradient>
		<path class="st4" d="M1650.99,55.05c0,0-113.59,107.89-143.63,137.94c-26.18,26.18-21.21,35.52,7.37,6.95
			C1552.8,161.86,1650.99,55.05,1650.99,55.05z"/>
		
			<linearGradient id="SVGID_5_" gradientUnits="userSpaceOnUse" x1="930.084" y1="-1372.5868" x2="815.2327" y2="-1193.6326" gradientTransform="matrix(-0.7071 0.7071 -0.7071 -0.7071 144.6317 -752.2659)">
			<stop  offset="0" style="stop-color:#FFFFFF"/>
			<stop  offset="0.2125" style="stop-color:#95D3E1"/>
			<stop  offset="1" style="stop-color:#FFEE5B"/>
		</linearGradient>
		<path class="st5" d="M522.35,724.1c0,0-113.59,107.89-143.63,137.94c-26.18,26.18-21.21,35.52,7.37,6.95
			C424.16,830.91,522.35,724.1,522.35,724.1z"/>
		
			<linearGradient id="SVGID_6_" gradientUnits="userSpaceOnUse" x1="1044.2719" y1="-1430.2639" x2="929.4207" y2="-1251.3098" gradientTransform="matrix(-0.7071 0.7071 -0.7071 -0.7071 144.6317 -752.2659)">
			<stop  offset="0" style="stop-color:#FFFFFF"/>
			<stop  offset="0.2125" style="stop-color:#95D3E1"/>
			<stop  offset="1" style="stop-color:#FFEE5B"/>
		</linearGradient>
		<path class="st6" d="M482.4,845.62c0,0-113.59,107.89-143.63,137.94c-26.18,26.18-21.21,35.52,7.37,6.95
			C384.2,952.44,482.4,845.62,482.4,845.62z"/>
		
			<linearGradient id="SVGID_7_" gradientUnits="userSpaceOnUse" x1="-325.0782" y1="-1833.1627" x2="-504.8513" y2="-1553.0513" gradientTransform="matrix(-0.7071 0.7071 -0.7071 -0.7071 144.6317 -752.2659)">
			<stop  offset="0" style="stop-color:#FFFFFF"/>
			<stop  offset="0.2125" style="stop-color:#95D3E1"/>
			<stop  offset="1" style="stop-color:#FFEE5B"/>
		</linearGradient>
		<path class="st7" d="M1772.2,76.41c0,0-177.8,168.88-224.82,215.91c-40.98,40.98-33.19,55.6,11.54,10.87
			C1618.5,243.6,1772.2,76.41,1772.2,76.41z"/>
		
			<linearGradient id="SVGID_8_" gradientUnits="userSpaceOnUse" x1="-130.5577" y1="-1807.8621" x2="-367.1662" y2="-1439.1932" gradientTransform="matrix(-0.7071 0.7071 -0.7071 -0.7071 144.6317 -752.2659)">
			<stop  offset="0" style="stop-color:#FFFFFF"/>
			<stop  offset="0.2125" style="stop-color:#95D3E1"/>
			<stop  offset="1" style="stop-color:#FFEE5B"/>
		</linearGradient>
		<path class="st8" d="M1648.85,120.91c0,0-234.01,222.28-295.9,284.17c-53.93,53.93-43.69,73.18,15.19,14.31
			C1446.56,340.97,1648.85,120.91,1648.85,120.91z"/>
		<g class="st9">
			<defs>
				<circle id="XMLID_73_" cx="1435.45" cy="839.58" r="191.78"/>
			</defs>
			
				<linearGradient id="XMLID_4_" gradientUnits="userSpaceOnUse" x1="-201.823" y1="2816.1877" x2="344.36" y2="2434.6082" gradientTransform="matrix(0.8842 0.4671 -0.4671 0.8842 2620.9915 -1517.8525)">
				<stop  offset="0" style="stop-color:#ACDCE7"/>
				<stop  offset="1" style="stop-color:#2E4F9E"/>
			</linearGradient>
			<use xlink:href="#XMLID_73_"  style="display:inline;overflow:visible;fill:url(#XMLID_4_);"/>
			<clipPath id="XMLID_5_" class="st10">
				<use xlink:href="#XMLID_73_"  style="overflow:visible;"/>
			</clipPath>
			<path class="st11" d="M1333.75,608.86c-9.84,34.07-9.61,70.99,0.65,104.94c1.6,5.3,3.46,10.66,3.33,16.2
				c-0.13,5.58-2.27,10.89-4.49,16.01c-21.95,50.56-54.58,95.62-81.86,143.51c-6.43,11.29-12.73,23.38-12.67,36.37
				c0.07,14.47,8,27.62,16.28,39.48c21.53,30.84,47.26,58.75,76.24,82.73c6.14-18.16-1.27-37.72-6.26-56.23
				c-9.04-33.48-10.01-69.79,1.76-102.41c13.98-38.73,44.37-69.09,75.74-95.77c16.34-13.9,34.86-30.83,33.02-52.21
				c-2.41-28.11-39.69-47.8-33.32-75.28c1.79-7.72,6.93-14.17,12.05-20.21c9.54-11.25,19.54-22.12,29.96-32.56
				c2.32-2.32,5.15-4.8,8.4-4.4c2.33,0.29,4.2,2,5.89,3.63c12.31,11.86,24.62,23.73,36.93,35.59c4.42,4.26,8.88,8.56,12.3,13.66
				c11.8,17.53,9.24,41.62-0.45,60.41c-9.69,18.78-25.39,33.61-40.14,48.75c-14.98,15.37-29.25,31.42-42.76,48.08
				c-12.37,15.26-24.38,31.6-29.11,50.66c-10.46,42.15,16.74,84.25,19.19,127.61c1.29,22.82-3.49,48.66,11.21,66.16
				c4.57,5.44,10.61,9.4,16.56,13.28c19.73,12.87,39.46,25.74,59.19,38.61c12.84,8.38,26.22,16.96,41.4,19.1
				c15.18,2.13,32.7-4.15,38.6-18.3c4.98-11.93,0.58-25.64-5.26-37.18c-9.7-19.17-23.23-36.09-35.84-53.49
				c-25.42-35.08-47.42-72.64-65.58-111.97c-3.78-8.18-7.38-17.84-3.27-25.86c3.56-6.94,11.64-10.06,19.08-12.41
				c16.01-5.04,32.3-9.2,48.76-12.43c13.6-2.67,27.78-4.89,39.34-12.53c11.56-7.64,19.69-22.59,14.72-35.52
				c-2.24-5.82-6.73-10.42-11.11-14.85c-10.03-10.15-20.07-20.3-30.1-30.45c-2-2.02-4.04-4.11-5.21-6.7
				c-2.15-4.78-0.96-10.39,0.94-15.27c7.79-20.03,25.87-33.82,39.87-50.13c13.99-16.31,24.28-40.28,13.38-58.8
				c-6.08-10.34-17.34-16.32-28.15-21.5c-62.89-30.09-130.43-50.43-199.48-60.07"/>
			<path class="st11" d="M1399.53,574.09c-14.97,13.2-30.08,26.56-41.61,42.84c-11.53,16.29-19.33,36.02-17.74,55.91
				c2.01,25.18,18.65,48.7,14.98,73.69c-1.71,11.63-7.71,22.13-13.73,32.23c-17.39,29.16-35.9,57.65-55.49,85.38
				c-10.08,14.27-20.59,28.63-26.1,45.21c-8.79,26.42-3.89,55.33,3.17,82.26c5.05,19.24,11.17,38.2,18.32,56.77
				c3.04,7.9,9.23,17.34,17.41,15.14c24.03-49.03-2.05-108.92,11.52-161.81c6.23-24.29,20.54-45.71,36.22-65.28
				c14.37-17.93,30.1-34.77,47.02-50.31c10.47-9.62,22.19-20.25,23.31-34.42c1.76-22.05-22.1-36.6-32.26-56.25
				c-13.88-26.84,0.04-60.41,20.93-82.23c20.89-21.83,48.14-36.76,69.06-58.56c7.53,6.56,11.57,16.14,15.37,25.36
				c11.04,26.83,22.08,53.65,33.12,80.48c4.83,11.74,9.74,23.81,10.06,36.51c0.65,25.82-17.34,47.91-34.32,67.37
				c-22.95,26.29-45.91,52.59-68.86,78.88c-8.68,9.94-17.72,20.65-19.71,33.7c-1.84,12.11,2.73,24.14,5.33,36.11
				c4.21,19.37,3.33,39.66,8.45,58.81c10.46,39.09,43.72,67.16,75.21,92.58c7.74,6.25,16.06,12.75,25.95,13.82
				c9.88,1.07,21.29-5.95,20.94-15.88c-0.18-5.16-3.34-9.67-6.35-13.86c-30.54-42.53-58.61-86.83-84.02-132.61
				c-3.7-6.66-7.42-13.63-7.95-21.23c-0.9-12.96,7.58-24.62,16.64-33.94c20.13-20.7,45.38-36.39,72.86-45.28
				c4.74-1.53,10-3.22,12.45-7.55c3.18-5.64-0.12-12.84-4.66-17.46c-4.53-4.62-10.36-8.09-13.78-13.58
				c-8.9-14.29,2.53-32.03,11.77-46.11c34.37-52.36,41.3-121.7,17.98-179.82c-2.42-6.03-5.31-12.17-10.35-16.27
				c-6.96-5.66-16.57-6.39-25.53-6.88c-38.01-2.06-76.01-4.13-114.02-6.19"/>
			<path class="st11" d="M1697.11,787.17c-12.29,25.81-27.44,50.68-48.19,70.33c-20.75,19.65-47.62,33.81-76.15,35.44
				c-13.64,0.78-28.06-1.14-40.38,4.77c-1.5,0.72-3.09,1.73-3.5,3.35c-0.36,1.44,0.34,2.9,1.01,4.22
				c9.02,17.65,18.04,35.29,27.07,52.93c9.68,18.93,22.62,40.24,43.74,42.64c7.22,0.82,15.54-1.5,18.9-7.95
				c4.83-9.29-3.01-19.89-10.3-27.4c-17.65-18.2-35.31-36.39-52.96-54.59c28.54-3.92,57.09-7.84,85.63-11.76
				c7.11-0.98,14.38-2,20.73-5.33c19.87-10.4,22.75-37.52,36.5-55.24"/>
			<path class="st11" d="M1457.64,601.12c-1.62,21.58,4.84,42.82,9.34,63.99c4.5,21.17,6.88,44.12-2.29,63.72
				c-4.22,9.02-10.65,16.78-17.01,24.44c-14.42,17.35-28.85,34.71-43.27,52.06c-32.82,39.49-67.4,83.65-66.95,134.99
				c0.13,14.78,3.24,29.34,6.33,43.79c5.89,27.51,11.78,55.05,19.88,81.98c6.4-7.81,6.83-19.1,4.17-28.84
				c-2.66-9.74-7.97-18.5-12.23-27.65c-15.11-32.39-16.84-70.79-4.71-104.41c10.45-28.96,30.26-53.47,50.29-76.85
				c18.15-21.18,36.78-41.96,55.87-62.3c8.43-8.98,17.07-18.04,22.78-28.96c13.05-24.96,8.81-54.99,5.37-82.95
				c-3.44-27.96-4.98-58.96,11.94-81.48"/>
			<path class="st12" d="M1606.86,691.34c0.77,63.78-33.29,123.74-77.81,169.42c-40.82,41.88-91.41,74.64-147.22,92.13
				c-55.81,17.49-116.82,19.36-172.88,2.71c1.09,17.4,13.07,31.98,24.86,44.82c43.06,46.91,94.7,90.6,157.27,102.43
				c42.56,8.05,87.23,0.42,126.84-17.12c52.48-23.23,97.04-63.95,124.89-114.13c29.08-52.39,39.7-113.76,36.68-173.6
				c-1.11-22.04-4.08-44.25-12.23-64.75c-8.16-20.5-21.9-39.31-40.93-50.49"/>
		</g>
		<g class="st9">
			
				<radialGradient id="XMLID_6_" cx="896.812" cy="761.9955" r="234.1218" gradientTransform="matrix(6.123234e-17 1 -1 6.123234e-17 1579.1892 -371.6362)" gradientUnits="userSpaceOnUse">
				<stop  offset="0.7501" style="stop-color:#FFFFFF;stop-opacity:0"/>
				<stop  offset="1" style="stop-color:#FFFFFF"/>
			</radialGradient>
			<circle id="XMLID_75_" class="st13" cx="817.19" cy="525.18" r="234.08"/>
			
				<radialGradient id="XMLID_7_" cx="896.812" cy="761.9955" r="172.6432" gradientTransform="matrix(6.123234e-17 1 -1 6.123234e-17 1579.1892 -371.6362)" gradientUnits="userSpaceOnUse">
				<stop  offset="0.8789" style="stop-color:#FFFFFF;stop-opacity:0"/>
				<stop  offset="1" style="stop-color:#FFFFFF"/>
			</radialGradient>
			<path id="XMLID_76_" class="st14" d="M732.44,374.8c83.05-46.81,188.32-17.43,235.13,65.62
				c46.81,83.05,17.43,188.32-65.62,235.13c-83.05,46.81-188.32,17.43-235.13-65.62C620.01,526.88,649.39,421.61,732.44,374.8z"/>
			<g class="st10">
				<defs>
					<circle id="XMLID_74_" cx="814.92" cy="526.71" r="144.96"/>
				</defs>
				
					<linearGradient id="XMLID_8_" gradientUnits="userSpaceOnUse" x1="794.4617" y1="613.972" x2="1039.861" y2="969.018" gradientTransform="matrix(6.123234e-17 1 -1 6.123234e-17 1579.1892 -371.6362)">
					<stop  offset="0" style="stop-color:#C1E4ED"/>
					<stop  offset="1" style="stop-color:#3964AE"/>
				</linearGradient>
				<use xlink:href="#XMLID_74_"  style="overflow:visible;fill:url(#XMLID_8_);"/>
				<clipPath id="XMLID_9_">
					<use xlink:href="#XMLID_74_"  style="overflow:visible;"/>
				</clipPath>
				<path class="st15" d="M899.71,434.23c-4.52-1.91-10.6-1.75-13.4,2.29c-1.49,2.15-1.71,4.92-1.63,7.54
					c0.51,15.93,10.36,30.07,21.51,41.46c2.89,2.96,5.97,5.85,9.74,7.55c3.77,1.7,8.38,2.02,11.92-0.12
					c5.3-3.2,6.37-10.47,5.67-16.62C931.36,457.33,917.02,441.55,899.71,434.23z"/>
				<path class="st15" d="M910.12,571.17c-4.52-1.91-10.6-1.75-13.4,2.29c-1.49,2.15-1.71,4.92-1.63,7.54
					c0.51,15.94,10.36,30.07,21.51,41.46c2.89,2.96,5.97,5.85,9.74,7.55c3.77,1.7,8.38,2.02,11.92-0.12
					c5.3-3.2,6.37-10.47,5.67-16.62C941.76,594.27,927.42,578.48,910.12,571.17z"/>
				<path class="st15" d="M820.84,415.06c-4.52-1.91-10.6-1.75-13.4,2.29c-1.49,2.15-1.71,4.92-1.63,7.54
					c0.5,15.94,10.36,30.07,21.51,41.46c2.89,2.96,5.97,5.85,9.74,7.55c3.77,1.7,8.38,2.02,11.92-0.12
					c5.3-3.2,6.37-10.47,5.67-16.62C852.48,438.16,838.14,422.37,820.84,415.06z"/>
				<path class="st15" d="M837.27,347.69c-4.52-1.91-10.6-1.75-13.39,2.29c-1.49,2.15-1.71,4.92-1.63,7.54
					c0.51,15.93,10.36,30.07,21.51,41.46c2.89,2.95,5.97,5.85,9.74,7.55c3.77,1.7,8.38,2.02,11.92-0.12
					c5.3-3.2,6.37-10.47,5.67-16.62C868.92,370.79,854.58,355,837.27,347.69z"/>
				<path class="st15" d="M733.2,559.66c-4.52-1.91-10.6-1.75-13.4,2.29c-1.49,2.15-1.71,4.92-1.63,7.54
					c0.51,15.94,10.36,30.07,21.51,41.46c2.89,2.96,5.97,5.85,9.74,7.55c3.77,1.7,8.38,2.02,11.92-0.12
					c5.3-3.2,6.37-10.47,5.67-16.62C764.85,582.76,750.51,566.98,733.2,559.66z"/>
				<path class="st15" d="M861.72,645.58c-5.88-2.49-13.8-2.27-17.43,2.98c-1.94,2.8-2.23,6.4-2.12,9.81
					c0.66,20.74,13.49,39.13,27.99,53.96c3.76,3.85,7.77,7.62,12.68,9.83c4.9,2.21,10.91,2.63,15.51-0.15
					c6.9-4.17,8.29-13.63,7.37-21.63C902.91,675.64,884.24,655.09,861.72,645.58z"/>
				<path class="st15" d="M673.85,561.77c-5.88-2.49-13.8-2.27-17.43,2.98c-1.94,2.8-2.23,6.4-2.12,9.81
					c0.66,20.74,13.49,39.13,28,53.96c3.76,3.85,7.77,7.62,12.68,9.83c4.9,2.21,10.91,2.63,15.51-0.15
					c6.9-4.17,8.29-13.62,7.37-21.63C715.03,591.84,696.37,571.29,673.85,561.77z"/>
				<path class="st15" d="M876.77,483c-2.58-1.09-6.05-1-7.64,1.31c-0.85,1.23-0.98,2.81-0.93,4.3c0.29,9.09,5.91,17.15,12.27,23.65
					c1.65,1.69,3.41,3.34,5.56,4.31c2.15,0.97,4.78,1.15,6.8-0.07c3.02-1.83,3.63-5.97,3.23-9.48
					C894.83,496.18,886.65,487.17,876.77,483z"/>
				<path class="st15" d="M749.54,471.49c-3.44-1.45-8.06-1.33-10.19,1.74c-1.13,1.64-1.3,3.74-1.24,5.73
					c0.38,12.12,7.88,22.87,16.36,31.54c2.2,2.25,4.54,4.45,7.41,5.74c2.87,1.29,6.38,1.54,9.07-0.09
					c4.03-2.44,4.84-7.96,4.31-12.64C773.61,489.06,762.7,477.05,749.54,471.49z"/>
				<path class="st15" d="M686.55,440.82c-3.44-1.45-8.06-1.33-10.19,1.74c-1.13,1.64-1.3,3.74-1.24,5.73
					c0.38,12.12,7.88,22.87,16.36,31.54c2.2,2.25,4.54,4.45,7.41,5.75c2.87,1.29,6.38,1.54,9.07-0.09
					c4.03-2.44,4.84-7.96,4.31-12.64C710.62,458.39,699.71,446.38,686.55,440.82z"/>
				<path class="st15" d="M810.06,496.16c-1.55-0.66-3.64-0.6-4.6,0.79c-0.51,0.74-0.59,1.69-0.56,2.59
					c0.17,5.48,3.56,10.33,7.39,14.25c0.99,1.02,2.05,2.01,3.35,2.6c1.3,0.58,2.88,0.69,4.1-0.04c1.82-1.1,2.19-3.6,1.95-5.71
					C820.94,504.1,816.01,498.67,810.06,496.16z"/>
				<path class="st15" d="M703.72,517.52c-1.55-0.66-3.64-0.6-4.6,0.79c-0.51,0.74-0.59,1.69-0.56,2.59
					c0.17,5.48,3.56,10.33,7.39,14.25c0.99,1.02,2.05,2.01,3.35,2.6c1.29,0.58,2.88,0.69,4.1-0.04c1.82-1.1,2.19-3.6,1.95-5.71
					C714.6,525.46,709.67,520.03,703.72,517.52z"/>
				<path class="st15" d="M758.57,415.64c-1.55-0.66-3.64-0.6-4.6,0.79c-0.51,0.74-0.59,1.69-0.56,2.59
					c0.17,5.48,3.56,10.33,7.39,14.25c0.99,1.02,2.05,2.01,3.35,2.6c1.3,0.58,2.88,0.69,4.1-0.04c1.82-1.1,2.19-3.6,1.95-5.71
					C769.45,423.58,764.52,418.16,758.57,415.64z"/>
				<path class="st15" d="M795.27,571.75c-1.55-0.66-3.64-0.6-4.6,0.79c-0.51,0.74-0.59,1.69-0.56,2.59
					c0.17,5.48,3.56,10.33,7.39,14.25c0.99,1.02,2.05,2.01,3.35,2.6s2.88,0.69,4.1-0.04c1.82-1.1,2.19-3.6,1.95-5.71
					C806.15,579.69,801.22,574.26,795.27,571.75z"/>
				<path class="st15" d="M878.53,616.66c-1.55-0.66-3.64-0.6-4.6,0.79c-0.51,0.74-0.59,1.69-0.56,2.59
					c0.17,5.48,3.56,10.33,7.39,14.25c0.99,1.02,2.05,2.01,3.35,2.6c1.3,0.58,2.88,0.69,4.1-0.04c1.82-1.1,2.19-3.6,1.95-5.71
					C889.4,624.6,884.47,619.17,878.53,616.66z"/>
				<path class="st15" d="M799.5,632c-1.55-0.66-3.64-0.6-4.6,0.79c-0.51,0.74-0.59,1.69-0.56,2.59c0.17,5.48,3.56,10.33,7.39,14.25
					c0.99,1.02,2.05,2.01,3.35,2.6s2.88,0.69,4.1-0.04c1.82-1.1,2.19-3.6,1.95-5.71C810.38,639.94,805.45,634.51,799.5,632z"/>
				<path class="st15" d="M841.82,558.59c-2.58-1.09-6.05-1-7.64,1.31c-0.85,1.23-0.98,2.81-0.93,4.3
					c0.29,9.09,5.91,17.15,12.27,23.65c1.65,1.69,3.41,3.34,5.56,4.31c2.15,0.97,4.78,1.15,6.8-0.07c3.02-1.83,3.63-5.97,3.23-9.48
					C859.87,571.77,851.69,562.76,841.82,558.59z"/>
				<path class="st15" d="M930.56,519.15c-2.58-1.09-6.05-1-7.64,1.31c-0.85,1.23-0.98,2.81-0.93,4.3
					c0.29,9.09,5.91,17.15,12.27,23.65c1.65,1.69,3.41,3.34,5.56,4.31c2.15,0.97,4.78,1.15,6.8-0.07c3.02-1.83,3.63-5.97,3.23-9.48
					C948.61,532.33,940.43,523.32,930.56,519.15z"/>
				<path class="st16" d="M642.61,608.36c50.81,20.82,108.88,23.36,161.31,7.06c52.43-16.31,98.82-51.34,128.85-97.31
					c21.17-32.4,34.4-69.85,58.64-100.01c12.06-15,30.15-28.92,48.86-24.4c12.3,2.97,21.48,13.37,27.52,24.49
					c19.42,35.76,13.2,80.6-3.48,117.73c-23.76,52.89-66.56,95.32-114.26,128.27c-37.39,25.83-79.34,46.9-124.48,52.17
					c-45.14,5.26-93.89-7.19-125.25-40.09c-22.27-23.37-34.04-54.55-45.26-84.82"/>
			</g>
		</g>
		<g class="st9">
			<defs>
				<circle id="XMLID_78_" cx="1707.98" cy="671.67" r="44.69"/>
			</defs>
			
				<linearGradient id="XMLID_10_" gradientUnits="userSpaceOnUse" x1="1031.1211" y1="-111.5256" x2="1071.3833" y2="-168.5637" gradientTransform="matrix(6.123234e-17 1 -1 6.123234e-17 1579.1892 -371.6362)">
				<stop  offset="0" style="stop-color:#E1408F"/>
				<stop  offset="1" style="stop-color:#FFDC5A"/>
			</linearGradient>
			<use xlink:href="#XMLID_78_"  style="display:inline;overflow:visible;fill:url(#XMLID_10_);"/>
			<clipPath id="XMLID_11_" class="st10">
				<use xlink:href="#XMLID_78_"  style="overflow:visible;"/>
			</clipPath>
			<path class="st17" d="M1770.11,606.32c10.43,2.28,20.1,7.94,27.19,15.92c4.03,4.54,7.31,10.02,7.9,16.06
				c0.59,6.04-2.02,12.63-7.36,15.52c-5.54,3-12.39,1.48-18.26-0.78c-8.32-3.21-16.06-7.78-24.3-11.2
				c-8.24-3.43-17.31-5.72-26.07-4.05c-10.39,1.97-19.12,9.35-25.01,18.12c-9.78,14.55-12.64,33.55-7.57,50.33
				c5.06,16.79,17.95,31.03,34.14,37.75c9,3.73,19.12,5.19,28.58,2.89c5.92-1.44,11.44-4.31,16.36-7.91
				c13.36-9.78,22.41-25.26,24.37-41.7c0.84-7.07,0.5-14.53,3.61-20.93c13.01,19.38,12.39,46.64-0.61,66.02
				c-10.53,15.69-28.56,26.09-47.42,27.35c-14.57,0.97-29.29-3.32-41.59-11.18c-12.31-7.86-22.25-19.16-29.35-31.91
				c-3.6-6.46-14.93-12.8-16.46-20.04c-1.69-7.98-13.04-23.42-11.57-31.44c4.78-26.16,30.52-66.9,55.83-75.07
				c25.31-8.17,68.98,22.38,90.62,37.84"/>
			<path class="st17" d="M1750.64,597.23c10.43,2.28,20.1,7.94,27.19,15.92c4.03,4.54,7.31,10.02,7.9,16.06
				c0.59,6.04-2.02,12.63-7.36,15.52c-5.53,2.99-12.39,1.48-18.26-0.78c-8.32-3.21-16.06-7.78-24.3-11.2
				c-8.24-3.43-17.31-5.72-26.07-4.05c-10.39,1.97-19.12,9.34-25.01,18.12c-9.78,14.55-12.64,33.55-7.57,50.33
				c5.06,16.78,17.95,31.03,34.14,37.75c9,3.73,19.12,5.19,28.58,2.89c5.92-1.44,11.44-4.31,16.36-7.91
				c13.36-9.78,22.41-25.26,24.37-41.7c0.84-7.07,0.5-14.53,3.61-20.93c13.01,19.38,12.39,46.64-0.61,66.02
				c-10.53,15.69-28.56,26.09-47.42,27.35c-14.57,0.97-29.29-3.32-41.6-11.18c-12.31-7.86-22.24-19.16-29.35-31.91
				c-3.6-6.46-14.93-12.8-16.46-20.04c-1.69-7.98-13.04-23.42-11.57-31.44c4.78-26.16,30.52-66.9,55.83-75.07
				c25.31-8.17,68.98,22.38,90.62,37.84"/>
		</g>
		<g class="st9">
			<defs>
				<path id="XMLID_101_" d="M853.1,949.17c-12.34,0-22.35-10.01-22.35-22.35c0-12.34,10-22.35,22.35-22.35
					c12.34,0,22.35,10,22.35,22.35C875.45,939.16,865.44,949.17,853.1,949.17z"/>
			</defs>
			
				<linearGradient id="XMLID_12_" gradientUnits="userSpaceOnUse" x1="1292.3617" y1="734.7199" x2="1312.4928" y2="706.2008" gradientTransform="matrix(6.123234e-17 1 -1 6.123234e-17 1579.1892 -371.6362)">
				<stop  offset="0" style="stop-color:#F59B1D"/>
				<stop  offset="1" style="stop-color:#FFEE5B"/>
			</linearGradient>
			<use xlink:href="#XMLID_101_"  style="display:inline;overflow:visible;fill:url(#XMLID_12_);"/>
			<clipPath id="XMLID_14_" class="st10">
				<use xlink:href="#XMLID_101_"  style="overflow:visible;"/>
			</clipPath>
			<path class="st18" d="M884.16,894.14c5.22,1.14,10.05,3.97,13.59,7.96c2.01,2.27,3.66,5.01,3.95,8.03
				c0.29,3.02-1.01,6.32-3.68,7.76c-2.77,1.5-6.19,0.74-9.13-0.39c-4.16-1.61-8.03-3.89-12.15-5.6c-4.12-1.71-8.65-2.86-13.04-2.02
				c-5.19,0.99-9.56,4.67-12.51,9.06c-4.89,7.28-6.32,16.77-3.79,25.17c2.53,8.39,8.97,15.52,17.07,18.87
				c4.5,1.87,9.56,2.6,14.29,1.45c2.96-0.72,5.72-2.16,8.18-3.96c6.68-4.89,11.2-12.63,12.18-20.85c0.42-3.54,0.25-7.26,1.81-10.47
				c6.5,9.69,6.2,23.32-0.31,33.01c-5.26,7.84-14.28,13.05-23.71,13.68c-7.28,0.49-14.64-1.66-20.8-5.59
				c-6.15-3.93-11.12-9.58-14.68-15.96c-1.8-3.23-7.47-6.4-8.23-10.02c-0.84-3.99-6.52-11.71-5.79-15.72
				c2.39-13.08,15.26-33.45,27.92-37.54c12.66-4.09,34.49,11.19,45.31,18.92"/>
			<path class="st18" d="M874.43,889.6c5.22,1.14,10.05,3.97,13.59,7.96c2.01,2.27,3.66,5.01,3.95,8.03
				c0.29,3.02-1.01,6.32-3.68,7.76c-2.77,1.5-6.19,0.74-9.13-0.39c-4.16-1.61-8.03-3.89-12.15-5.6c-4.12-1.71-8.65-2.86-13.04-2.02
				c-5.19,0.99-9.56,4.67-12.51,9.06c-4.89,7.28-6.32,16.77-3.79,25.17c2.53,8.39,8.97,15.51,17.07,18.87
				c4.5,1.87,9.56,2.6,14.29,1.45c2.96-0.72,5.72-2.16,8.18-3.96c6.68-4.89,11.2-12.63,12.18-20.85c0.42-3.54,0.25-7.26,1.81-10.47
				c6.5,9.69,6.2,23.32-0.31,33.01c-5.26,7.84-14.28,13.05-23.71,13.68c-7.28,0.49-14.64-1.66-20.8-5.59
				c-6.15-3.93-11.12-9.58-14.68-15.96c-1.8-3.23-7.47-6.4-8.23-10.02c-0.84-3.99-6.52-11.71-5.79-15.72
				c2.39-13.08,15.26-33.45,27.92-37.54c12.65-4.09,34.49,11.19,45.31,18.92"/>
		</g>
		<g class="st9">
			<defs>
				<circle id="XMLID_102_" cx="1193.39" cy="217.44" r="70.47"/>
			</defs>
			
				<linearGradient id="XMLID_15_" gradientUnits="userSpaceOnUse" x1="-261.8691" y1="-1310.6898" x2="-352.3682" y2="-1209.7487" gradientTransform="matrix(-0.7902 0.6129 -0.6129 -0.7902 177.9289 -584.7057)">
				<stop  offset="0" style="stop-color:#FFEE5B"/>
				<stop  offset="1" style="stop-color:#F59B1D"/>
			</linearGradient>
			<use xlink:href="#XMLID_102_"  style="display:inline;overflow:visible;fill:url(#XMLID_15_);"/>
			<clipPath id="XMLID_16_" class="st10">
				<use xlink:href="#XMLID_102_"  style="overflow:visible;"/>
			</clipPath>
			<path class="st19" d="M1309.19,181.62c-7.28-6.78-19.15-1.03-26.32,5.86c-41.15,39.48-41.7,104.46-67.06,155.54
				c-4.6-67.31,48.78-123.84,66.59-188.91c-32.27,22.14-55.06,55.86-71.13,91.54c-16.07,35.68-26.09,73.72-37.81,111.05
				c-2.9,9.25-6.3,19.02-13.95,24.97c-6.62-4.65-8.35-14.03-6.48-21.9s6.61-14.69,10.84-21.58
				c30.34-49.49,38.26-111.15,73.53-157.27c12.36-16.16,28.18-30.66,34.12-50.12c5.94-19.46-4.47-45.88-24.81-46.6
				c-14.7-0.52-26.19,12.06-34.94,23.87c-50.21,67.8-84.4,147.39-99.01,230.48c-0.8,4.53-0.93,10.36,3.18,12.43
				c-10.31-15.85-6.06-36.72-0.89-54.91c22-77.37,54.84-152.53,104.46-215.84"/>
			<path class="st19" d="M1240.43,138.65c4.76-6.54,9.87-13.65,9.74-21.74c-6.94-0.63-11.99,6.21-15.53,12.21
				c-17.17,29.17-34.34,58.36-50.03,88.36c-6.48,12.4-43.22,70.84-29.86,81.39c7.73-9.54,11.21-27.36,16.29-39
				c6.21-14.26,12.94-28.29,20.17-42.06C1205.67,190.29,1222.13,163.8,1240.43,138.65z"/>
			<path class="st20" d="M1206.21,24.34c18.34,9.32,27.65,29.94,34.13,49.47c11.73,35.36,18.71,73.2,12.46,109.92
				c-6.25,36.72-27.36,72.22-60.55,89.11c-33.56,17.08-73.69,13.27-110.7,6.27c-12.37-2.34-28.05-3.64-34.64,7.08
				c-4.48,7.28-2.19,16.74,1.02,24.66c19.88,49.06,71.4,82.27,124.29,84.49c52.89,2.22,105.13-24.65,137.84-66.27
				c32.71-41.62,46.49-96.55,42.08-149.3c-4.41-52.75-26.14-103.25-57.57-145.85"/>
		</g>
	</g>
</g>
</svg>
